<?xml version="1.0" encoding="utf-8"?>
<!-- Generator: Adobe Illustrator 16.0.0, SVG Export Plug-In . SVG Version: 6.00 Build 0)  -->
<!DOCTYPE svg PUBLIC "-//W3C//DTD SVG 1.1//EN" "http://www.w3.org/Graphics/SVG/1.1/DTD/svg11.dtd">
<svg version="1.1" id="Capa_1" xmlns="http://www.w3.org/2000/svg" xmlns:xlink="http://www.w3.org/1999/xlink" x="0px" y="0px"
	 width="749.561px" height="178.666px" viewBox="0 0 749.561 178.666" enable-background="new 0 0 749.561 178.666"
	 xml:space="preserve">
<g>
	<path fill-rule="evenodd" clip-rule="evenodd" fill="#FFFEFE" d="M105.678,178.609c-21.952,0.658-49.57-4.289-74.672-18.191
		C7.553,147.43-9.538,120.64,5.918,88.118c8.994-18.924,23.65-32.768,40.393-44.708c27.775-19.808,58.943-31.32,92.153-38.035
		c22.08-4.464,44.33-6.334,66.782-4.901c22.573,1.441,44.612,5.744,64.489,17.056c20.768,11.818,35.321,29.151,32.363,54.799
		c-1.679,14.56-8.771,26.732-18.001,37.74c-18.213,21.721-41.74,35.983-67.402,46.922
		C183.413,171.181,148.619,178.537,105.678,178.609z M157.282,128.152c-3.58,7.635-9.293,11.699-16.076,14.465
		c-15.724,6.409-29.924,2.094-43.637-7.193c-3.612,11.61-10.179,19.734-22.688,23.779c41.36,11.697,80.669,8.444,120.708-5.166
		c-16.186-8.182-20.246-21.227-17.381-37.285c-8.048-0.664-15.643,0.438-22.82-2.36c-7.13-2.779-13.333-6.901-18.06-12.922
		c-4.636-5.907-8.079-12.342-6.852-21.032c1.851,1.719,3.175,2.92,4.469,4.155c4.337,4.139,9.487,6.912,15.35,7.787
		c21.06,3.141,42.229,2.351,63.312,0.559c14.869-1.264,28.363,1.918,41.11,9.288c1.21,0.7,2.164,2.182,3.897,1.693
		c8.419-18.279,4.279-36.959-11.391-51.057c-15.387-13.844-34.256-19.925-54.077-23.264c-25.425-4.282-50.791-2.872-75.839,3.015
		c-25.744,6.05-49.65,16.071-69.624,34.015c-5.906,5.305-10.916,11.333-15.229,18.798c4.363,0,7.936-0.338,11.424,0.063
		c10.517,1.209,20.854,2.736,29.983,9.094c13.868,9.66,28.25,18.576,43.346,26.214c7.524,3.807,14.968,7.934,23.541,9.289
		C146.214,130.951,151.227,128.789,157.282,128.152z M39.229,137.257c-2.551-13.194,1.564-23.795,12.167-32.286
		c-7.846-3.753-14.833-7.78-22.616-9.934C22.748,107.555,27.562,128.283,39.229,137.257z M251.726,115.735
		c-5.904-2.088-11.547-2.602-18.106-2.755c2.455,5.945,3.302,11.558,2.636,18.114C242.653,126.528,247.253,121.491,251.726,115.735z
		"/>
	<path fill-rule="evenodd" clip-rule="evenodd" fill="#FFFEFE" d="M509.854,69.207c6.396-5.528,13.6-1.488,20.768-3.289
		c-2.157,14.661-3.941,28.459-6.309,42.157c-1.139,6.582-6.145,10.738-11.988,13.121c-12.301,5.014-25.028,4.938-37.641,1.229
		c-6.264-1.842-8.812-5.689-8.959-12.008c7.955,0,15.908-0.004,23.861,0.006c0.828,0,1.487,0.338,2.23,0.809
		c7.082,4.49,13.21,0.975,13.604-8.129c-5.523,2.611-11.115,4.33-17.156,4.293c-10.32-0.066-17.657-4.172-20.259-11.529
		c-2.88-8.144,0.419-18.803,7.653-24.729C484.591,63.818,497.399,63.208,509.854,69.207z M496.71,94.871
		c6.682,0.097,11.256-3.678,11.268-9.297c0.01-4.594-3.129-7.154-8.814-7.188c-6.516-0.039-11.443,3.97-11.419,9.292
		C487.764,92.017,491.222,94.792,496.71,94.871z"/>
	<path fill-rule="evenodd" clip-rule="evenodd" fill="#FFFEFE" d="M313.086,53.439c8.731,0,16.206,0.117,23.674-0.057
		c3.074-0.07,3.277,1.973,3.875,4.017c1.681,5.743,3.417,11.47,5.23,17.536c3.753-1.641,4.166-4.952,5.76-7.248
		c2.771-3.99,5.105-8.292,7.484-12.541c0.781-1.397,1.812-1.709,3.224-1.705c7.448,0.023,14.896,0.011,22.468,0.011
		c-0.146,2.506-1.827,3.771-2.978,5.3c-6.994,9.295-13.735,18.806-21.174,27.733c-4.497,5.397-6.774,11.179-7.132,18.019
		c-0.099,1.896-0.824,3.76-1.241,5.545c-7.282,0-14.214,0-21.072,0c-0.108-0.41-0.224-0.59-0.181-0.719
		c5.123-15.469-4.004-27.368-10.053-40.023C318.568,64.281,316.017,59.326,313.086,53.439z"/>
	<path fill-rule="evenodd" clip-rule="evenodd" fill="#FFFEFE" d="M424.722,110.033c-6.553,0-12.66,0-19.358,0
		c1.267-9.529,2.479-18.719,3.714-27.907c0.531-3.957,1.307-7.892,1.604-11.863c0.217-2.889,1.162-4.133,4.244-3.994
		c4.98,0.224,9.979,0.061,14.625,0.061c1.867,0.893,0.354,2.739,1.861,3.737c6.059-3.488,12.705-5.213,19.891-4.603
		c8.781,0.747,13.406,5.416,13.265,14.225c-0.163,10.17-2.524,20.092-3.733,30.36c-6.408,0-12.503,0-19.063,0
		c-0.312-6.555,1.52-12.81,2.133-19.166c0.713-7.395,0.121-9.102-4.271-9.739c-6.413-0.931-11.021,2.25-11.914,8.358
		c-0.795,5.433-1.43,10.889-2.172,16.33C425.367,107.139,425.042,108.426,424.722,110.033z"/>
	<path fill-rule="evenodd" clip-rule="evenodd" fill="#FFFEFE" d="M566.127,106.398c-7.007,3.676-14.088,5.744-21.797,4.322
		c-7.748-1.432-11.428-5.441-11.512-13.238c-0.104-9.677,2.348-19.104,3.342-28.68c0.146-1.413,0.707-2.498,2.483-2.482
		c5.617,0.05,11.235,0.019,17.315,0.019c-0.887,7.153-1.721,13.711-2.506,20.273c-0.457,3.818-1.47,7.986,4.242,8.82
		c5.852,0.854,10.944-2.219,11.803-7.381c0.953-5.729,1.688-11.502,2.264-17.281c0.314-3.157,1.256-4.765,4.863-4.526
		c4.932,0.325,9.902,0.081,15.442,0.081c-2.031,14.854-3.98,29.106-5.97,43.647c-6.353,0-12.433,0-19.064,0
		C565.951,109.447,567.24,107.734,566.127,106.398z"/>
	<path fill-rule="evenodd" clip-rule="evenodd" fill="#FFFEFE" d="M600.69,53.203c6.894,0,13.184,0,19.989,0
		c-2.663,19.13-5.287,37.981-7.914,56.86c-6.874,0-13.149,0-19.944,0C595.453,91.043,598.043,72.331,600.69,53.203z"/>
	<path fill-rule="evenodd" clip-rule="evenodd" fill="#FFFEFE" d="M386.972,66.534c6.697,0,12.955,0,19.9,0
		c-1.96,14.568-3.887,28.893-5.848,43.47c-6.701,0-13.072,0-19.998,0C383.011,95.499,384.957,81.265,386.972,66.534z"/>
	<path fill-rule="evenodd" clip-rule="evenodd" fill="#FFFEFE" d="M720.794,110.146c0.735-6.252,1.621-12.138,2.069-18.057
		c0.468-6.164-1.728-8.1-7.957-7.646c-6.199,0.452-10.456,4.413-11.332,10.504c-0.615,4.276-1.411,8.532-1.86,12.825
		c-0.282,2.688-1.534,2.889-3.946,2.039c1.121-8.229,2.167-16.429,3.422-24.598c0.207-1.346-0.379-3.788,2.309-3.608
		c2.971,0.199,0.322,2.881,1.88,4.095c3.271-2.521,6.909-4.555,11.385-4.594c4.41-0.038,8.267,0.796,10.424,5.433
		c4.362-4.209,9.359-5.954,15.188-5.254c4.917,0.591,7.465,2.884,7.162,7.756c-0.391,6.287-1.437,12.536-2.277,18.791
		c-0.259,1.928-1.216,3.094-3.597,2.021c-0.31-4.777,0.893-9.485,1.545-14.214c1.051-7.604,0.379-10.156-4.215-10.854
		c-6.008-0.913-12.956,1.713-14.312,7.619c-1.037,4.52-1.405,9.191-2.124,13.788C724.271,108.014,724.671,110.457,720.794,110.146z"
		/>
	<path fill-rule="evenodd" clip-rule="evenodd" fill="#FFFEFE" d="M677.919,111.318c-7.971-0.055-13.293-5.291-13.2-12.986
		c0.121-10.051,7.736-17.771,17.565-17.809c8.26-0.031,13.463,5.114,13.392,13.24C695.588,103.723,687.837,111.385,677.919,111.318z
		 M678.553,107.514c7.863,0.027,13.217-5.514,13.199-13.664c-0.013-6.007-3.505-9.466-9.645-9.553
		c-7.859-0.112-13.361,5.383-13.48,13.46C668.537,103.951,672.137,107.49,678.553,107.514z"/>
	<path fill-rule="evenodd" clip-rule="evenodd" fill="#FFFEFE" d="M662.467,100.232c-3.509,8.573-11.229,12.657-19.346,10.584
		c-6.633-1.691-10.211-7.246-9.304-14.44c1.155-9.153,8.113-15.613,17.06-15.838c7.13-0.18,11.496,3.28,12.536,10.021
		c-1.908,1.176-3.212,0.904-4.157-1.353c-1.965-4.697-5.994-5.403-10.395-4.871c-5.089,0.616-8.533,3.536-10.242,8.324
		c-1.52,4.258-1.887,8.544,1.501,12.179c4.333,4.65,13.134,3.379,17.486-2.418C659.349,100.101,659.349,100.101,662.467,100.232z"/>
	<path fill-rule="evenodd" clip-rule="evenodd" fill="#FFFEFE" d="M387.938,62.17c0.13-10.744,0.13-10.744,10.376-10.743
		c3.281,0.001,6.564,0,9.971,0c0.867,3.796-0.305,7.093-0.85,10.743C401.061,62.17,394.677,62.17,387.938,62.17z"/>
	<path fill-rule="evenodd" clip-rule="evenodd" fill="#FFFEFE" d="M621.101,109.883c-0.063-3.244,0.648-5.203,4.29-4.025
		C625.98,109.09,625.398,111.063,621.101,109.883z"/>
	<path fill-rule="evenodd" clip-rule="evenodd" fill="#FFFEFE" d="M78.136,81.933c-0.162-12.617,9.226-22.461,21.563-22.61
		c12.434-0.15,22.354,9.472,22.451,21.776c0.096,12.167-9.845,22.018-22.134,22.303C89.765,103.639,76.878,94.497,78.136,81.933z"/>
	<path fill-rule="evenodd" clip-rule="evenodd" fill="#FFFEFE" d="M181.132,68.143c-0.02-12.228,9.457-21.852,21.65-21.987
		c12.355-0.137,22.329,9.662,22.332,21.941c0.002,11.934-9.988,22.085-21.788,22.138C191.004,90.291,181.151,80.483,181.132,68.143z
		"/>
</g>
</svg>
