<?xml version="1.0" encoding="utf-8"?>
<!-- Generator: Adobe Illustrator 16.0.0, SVG Export Plug-In . SVG Version: 6.00 Build 0)  -->
<!DOCTYPE svg PUBLIC "-//W3C//DTD SVG 1.1//EN" "http://www.w3.org/Graphics/SVG/1.1/DTD/svg11.dtd">
<svg version="1.1" id="Capa_1" xmlns="http://www.w3.org/2000/svg" xmlns:xlink="http://www.w3.org/1999/xlink" x="0px" y="0px"
	 width="300.47px" height="175.75px" viewBox="0 0 300.47 175.75" enable-background="new 0 0 300.47 175.75" xml:space="preserve">
<path fill="#FFFFFF" d="M298.866,55.897c-9.844-44.746-84.486-66.726-166.718-49.093C49.916,24.437-8.766,75.005,1.078,119.752
	c9.844,44.746,84.487,66.725,166.72,49.095C250.028,151.214,308.711,100.645,298.866,55.897z M152.811,160.936
	c-64.688,8.874-121.292-13.497-126.428-49.973c-5.134-36.478,43.141-73.244,107.828-82.122
	c64.688-8.877,121.292,13.498,126.428,49.973C265.772,115.289,217.496,152.057,152.811,160.936z"/>
<path fill="#FFFFFF" d="M94.371,106.405c43.1,30.324,59.697,20.054,59.697,20.054s2.477-0.235,1.733,0.86
	s-17.587,31.175-59.449,5.742s-45.825-29.835-45.825-29.835S29.225,90.51,19.564,90.755c-2.876,0.072-1.624-3.616,3.22-5.044
	C46.316,82.929,60.436,81.707,94.371,106.405z"/>
<path fill="#FFFFFF" d="M270.736,115.943l-19.32-2.182c0,0-16.844-5.889-49.293-1.731c-31.211,0.733-39.881,7.092-59.698-5.38
	c-12.385-6.847-13.624-22.743-13.871-25.188c-0.248-2.445,0.991-1.222,1.486-1.222c0.496,0,6.193,15.407,52.762,12.96
	c44.587-4.891,60.688,0,75.797,11.982C266.28,115.44,270.736,115.943,270.736,115.943z"/>
<ellipse fill="#FFFFFF" cx="99.325" cy="79.995" rx="21.798" ry="21.52"/>
<ellipse fill="#FFFFFF" cx="201.379" cy="67.034" rx="21.798" ry="21.52"/>
<ellipse fill="#FFFFFF" cx="67.807" cy="127.496" rx="29.912" ry="29.531"/>
<ellipse fill="#FFFFFF" cx="205.519" cy="124.031" rx="29.912" ry="29.531"/>
</svg>
